/* XPM */
static char *coin1679953997[] = {
/* columns rows colors chars-per-pixel */
"50 50 157 2 ",
"   c #503A0B",
".  c #4B3811",
"X  c #513E16",
"o  c #56410F",
"O  c #5E470E",
"+  c #5E480E",
"@  c #5B4712",
"#  c #53441C",
"$  c #644D0E",
"%  c #6A510B",
"&  c #71550D",
"*  c #78570D",
"=  c #73590E",
"-  c #7B5E0D",
";  c #634D11",
":  c #694F13",
">  c #6D5412",
",  c #6D541A",
"<  c #745A13",
"1  c #7A5E12",
"2  c #7D610E",
"3  c #7D6213",
"4  c #7B611A",
"5  c #6A5E2B",
"6  c #6E602E",
"7  c #7D6924",
"8  c #75672D",
"9  c #7C6B30",
"0  c #5C5D4D",
"q  c #59625E",
"w  c #706840",
"e  c #6A6F5E",
"r  c #6B6B56",
"t  c #74765F",
"y  c #4E6275",
"u  c #5D707B",
"i  c #626E6E",
"p  c #69746F",
"a  c #787C66",
"s  c #61727B",
"d  c #66787F",
"f  c #83640E",
"g  c #8B6B0C",
"h  c #936F0F",
"j  c #9A760C",
"k  c #9C780E",
"l  c #826614",
"z  c #876813",
"x  c #8A6C13",
"c  c #806718",
"v  c #856C1E",
"b  c #8C6F1D",
"n  c #8E7015",
"m  c #8F7318",
"M  c #947314",
"N  c #987614",
"B  c #9C7A14",
"V  c #92731B",
"C  c #977A1D",
"Z  c #9C7B1A",
"A  c #A37C0D",
"S  c #A17D14",
"D  c #A17F1B",
"F  c #836E26",
"G  c #957B21",
"H  c #9C7D21",
"J  c #778174",
"K  c #7D887B",
"L  c #AB830D",
"P  c #B88F0F",
"I  c #BA910C",
"U  c #A48114",
"Y  c #AA8413",
"T  c #AE8914",
"R  c #A4821D",
"E  c #A98619",
"W  c #AD8919",
"Q  c #B38C13",
"!  c #B28C1A",
"~  c #B69017",
"^  c #BB9315",
"/  c #B6911A",
"(  c #BA941B",
")  c #BF991B",
"_  c #9A832D",
"`  c #AC8E27",
"'  c #B28E23",
"]  c #B49222",
"[  c #BA9721",
"{  c #BD9A24",
"}  c #B89A28",
"|  c #A38E34",
" . c #C89C0B",
".. c #C09613",
"X. c #C39A14",
"o. c #C99D13",
"O. c #C39C1B",
"+. c #DAAB0D",
"@. c #CCA317",
"#. c #CCA21D",
"$. c #D2A514",
"%. c #DCAE16",
"&. c #D3A91E",
"*. c #DCAF19",
"=. c #DFB011",
"-. c #DEB11C",
";. c #E2B415",
":. c #E5B71C",
">. c #E4B81C",
",. c #E9BB1B",
"<. c #C39D23",
"1. c #C9A221",
"2. c #CFA926",
"3. c #C1A22A",
"4. c #D3AA25",
"5. c #D9AE21",
"6. c #DBB022",
"7. c #DCB42B",
"8. c #D7B330",
"9. c #DEBB32",
"0. c #D9BD3A",
"q. c #E2B520",
"w. c #E6BA25",
"e. c #EBBD24",
"r. c #EEC123",
"t. c #EAC22B",
"y. c #F1C325",
"u. c #F6C728",
"i. c #F6CA2B",
"p. c #F9CB2D",
"a. c #F7CE31",
"s. c #FCD639",
"d. c #FCD739",
"f. c #FDE244",
"g. c #FEE648",
"h. c #4E6882",
"j. c #5D7891",
"k. c #5E7C9A",
"l. c #627480",
"z. c #6C7D81",
"x. c #657C8B",
"c. c #617C94",
"v. c #6C8084",
"b. c #6D828C",
"n. c #788784",
"m. c #7A8B88",
"M. c #678092",
"N. c #62819D",
"B. c #5F81A6",
"V. c #6286AC",
"C. c #658BB4",
"Z. c #698FB5",
"A. c #678FB9",
"S. c #688FB9",
"D. c #6992BD",
"F. c #6C96C3",
"G. c #6D98C5",
/* pixels */
"G.G.G.G.G.G.G.G.G.G.G.G.G.G.G.G.G.G.G.G.G.G.G.G.G.G.G.G.G.G.G.G.G.G.G.G.G.G.G.G.G.G.G.G.G.G.G.G.G.G.",
"G.G.G.G.G.G.G.G.G.G.G.G.G.G.G.G.G.G.G.G.G.G.G.G.G.G.G.G.G.G.G.G.G.G.G.G.G.G.G.G.G.G.G.G.G.G.G.G.G.G.",
"G.G.G.G.G.G.G.G.G.G.G.G.G.G.G.G.G.G.G.G.G.G.G.G.G.G.G.G.G.G.G.G.G.G.G.G.G.G.G.G.G.G.G.G.G.G.G.G.G.G.",
"G.G.G.G.G.G.G.G.G.G.G.G.G.G.G.G.G.G.G.G.G.G.G.G.G.G.G.G.G.G.G.G.G.G.G.G.G.G.G.G.G.G.G.G.G.G.G.G.G.G.",
"G.G.G.G.G.G.G.G.G.G.G.G.G.G.G.G.G.G.G.G.G.G.G.G.G.G.G.G.G.G.G.G.G.G.G.G.G.G.G.G.G.G.G.G.G.G.G.G.G.G.",
"G.G.G.G.G.G.G.G.G.G.G.G.G.G.G.G.G.G.G.G.G.G.G.G.G.G.G.G.G.G.G.G.G.G.G.G.G.G.G.G.G.G.G.G.G.G.G.G.G.G.",
"G.G.G.G.G.G.G.G.G.G.G.G.G.G.G.G.G.G.G.G.G.G.G.G.G.G.G.G.G.G.G.G.G.G.G.G.G.G.G.G.G.G.G.G.G.G.G.G.G.G.",
"G.G.G.G.G.G.G.G.G.G.G.G.G.G.G.G.G.G.G.G.G.G.G.G.G.G.G.G.G.G.G.G.G.G.G.G.G.G.G.G.G.G.G.G.G.G.G.G.G.G.",
"G.G.G.G.G.G.G.G.G.G.G.G.G.G.G.G.G.G.G.G.G.G.G.G.G.G.G.G.G.G.G.G.G.G.G.G.G.G.G.G.G.G.G.G.G.G.G.G.G.G.",
"G.G.G.G.G.G.G.G.G.G.G.G.G.G.G.G.G.G.G.G.G.G.G.G.G.G.G.G.G.G.G.G.G.G.G.G.G.G.G.G.G.G.G.G.G.G.G.G.G.G.",
"G.G.G.G.G.G.G.G.G.G.G.G.G.G.G.G.G.G.G.G.G.G.G.G.G.G.G.G.G.G.G.G.G.G.G.G.G.G.G.G.G.G.G.G.G.G.G.G.G.G.",
"G.G.G.G.G.G.G.G.G.G.G.G.G.G.G.G.G.G.G.G.G.G.G.G.G.G.G.G.G.G.G.G.G.G.G.G.G.G.G.G.G.G.G.G.G.G.G.G.G.G.",
"G.G.G.G.G.G.G.G.G.G.G.G.G.G.G.G.G.G.G.G.G.G.G.G.G.G.G.G.G.G.G.G.G.G.G.G.G.G.G.G.G.G.G.G.G.G.G.G.G.G.",
"G.G.G.G.G.G.G.G.G.G.G.G.G.G.G.G.G.G.G.G.G.G.G.G.G.G.G.G.G.G.G.G.G.G.G.G.G.G.G.G.G.G.G.G.G.G.G.G.G.G.",
"G.G.G.G.G.G.G.G.G.G.G.G.G.G.G.G.G.G.G.G.G.B.M.K p r J c.A.G.G.G.G.G.G.G.G.G.G.G.G.G.G.G.G.G.G.G.G.G.",
"G.G.G.G.G.G.G.G.G.G.G.G.G.G.G.G.G.G.F.m._ / > 1 z f 3 E E 5 y F.G.G.G.G.G.G.G.G.G.G.G.G.G.G.G.G.G.G.",
"G.G.G.G.G.G.G.G.G.G.G.G.G.G.G.G.G.x.| C H v b ^ / <.^ g ^ n 3 6 A.F.G.G.G.G.G.G.G.G.G.G.G.G.G.G.G.G.",
"G.G.G.G.G.G.G.G.G.G.G.G.G.G.G.F.z.G z B S U O.^ @.^ P L n C W 2 8 D.G.G.G.G.G.G.G.G.G.G.G.G.G.G.G.G.",
"G.G.G.G.G.G.G.G.G.G.G.G.G.G.G.D.F 2 U Y 4.a.y.O.9.) T ,.>.n 2 Q N t G.G.G.G.G.G.G.G.G.G.G.G.G.G.G.G.",
"G.G.G.G.G.G.G.G.G.G.G.G.G.G.F.0 % g Q t.g.s.( ! #.#.4.U i.r.M z x V k.G.G.G.G.G.G.G.G.G.G.G.G.G.G.G.",
"G.G.G.G.G.G.G.G.G.G.G.G.G.G.G.F 2 Y >.g.f.9.2.} >.;.1.Z I y.q.l ^ > q G.G.G.G.G.G.G.G.G.G.G.G.G.G.G.",
"G.G.G.G.G.G.G.G.G.G.G.G.G.G.c.1 k #.a.d.f.{ M Z W B B B &.$.u.~ ! M # F.G.G.G.G.G.G.G.G.G.G.G.G.G.G.",
"G.G.G.G.G.G.G.G.G.G.G.G.F.G.v.+ N #.u.s.s.<.{ ` 9.<.! B u.O.,.-.M B @ G.G.G.G.G.G.G.G.G.G.G.G.G.G.G.",
"G.G.G.G.G.G.G.G.G.G.G.G.F.F.d > N ' w.p.i.&.^ a.Z 7.4.h p.e.@.;.~ - 3 S.G.G.G.G.G.G.G.G.G.G.G.G.G.G.",
"G.G.G.G.G.G.G.G.G.G.G.G.G.G.b.* - ] 0.w.y.y.{ W p.y.x / $.V - W #.< < V.F.G.G.G.G.G.G.G.G.G.G.G.G.G.",
"G.G.G.G.G.G.G.G.G.G.G.G.G.G.b.$ M ^ { 7.[ B b 4 . : Z l : , Z / W ; M C.G.G.G.G.G.G.G.G.G.G.G.G.G.G.",
"G.G.G.G.G.G.G.G.G.G.G.G.G.G.c.< A ^ ^ #.} 6.#.3./ W ] < D X l Q D & l F.G.G.G.G.G.G.G.G.G.G.G.G.G.G.",
"G.G.G.G.G.G.G.G.G.G.G.G.G.G.D.M * L %.j ..D / <.l 3 } 5.x Y ^ x - f w G.G.G.G.G.G.G.G.G.G.G.G.G.G.G.",
"G.G.G.G.G.G.G.G.G.G.G.G.G.G.G.9 * A  .+.L k 4 4 Z <.<.^ :.,.=.Y o j z.G.G.G.G.G.G.G.G.G.G.G.G.G.G.G.",
"G.G.G.G.G.G.G.G.G.G.G.G.G.G.G.i & g A %.$.B @ E 4 g T -.r.o.Z Y 3 V V.G.G.G.G.G.G.G.G.G.G.G.G.G.G.G.",
"G.G.G.G.G.G.G.G.G.G.G.G.G.G.G.F.l % j T 1.:.1 b , S U B Y B T - S a G.G.G.G.G.G.G.G.G.G.G.G.G.G.G.G.",
"G.G.G.G.G.G.G.G.G.G.G.G.G.G.G.G.d h 2 U e.P $.O.*.:.O.B Q ! m x 3 C.G.G.G.G.G.G.G.G.G.G.G.G.G.G.G.G.",
"G.G.G.G.G.G.G.G.G.G.G.G.G.G.G.G.G.n.M 1 o.N Q j ~ N z E B l z 3 N.G.G.G.G.G.G.G.G.G.G.G.G.G.G.G.G.G.",
"G.G.G.G.G.G.G.G.G.G.G.G.G.G.G.G.G.G.x.7 z $   f L Q Y - > f F c.G.G.G.G.G.G.G.G.G.G.G.G.G.G.G.G.G.G.",
"G.G.G.G.G.G.G.G.G.G.G.G.G.G.G.G.G.G.G.Z.0 ; 3 % ; & - l 1 p C.G.G.G.G.G.G.G.G.G.G.G.G.G.G.G.G.G.G.G.",
"G.G.G.G.G.G.G.G.G.G.G.G.G.G.G.G.G.G.G.G.F.C.h.u u s l.j.F.G.F.G.G.G.G.G.G.G.G.G.G.G.G.G.G.G.G.G.G.G.",
"G.G.G.G.G.G.G.G.G.G.G.G.G.G.G.G.G.G.G.G.G.G.G.G.F.G.G.G.G.G.G.G.G.G.G.G.G.G.G.G.G.G.G.G.G.G.G.G.G.G.",
"G.G.G.G.G.G.G.G.G.G.G.G.G.G.G.G.G.G.G.G.G.G.G.G.G.G.G.G.G.G.G.G.G.G.G.G.G.G.G.G.G.G.G.G.G.G.G.G.G.G.",
"G.G.G.G.G.G.G.G.G.G.G.G.G.G.G.G.G.G.G.G.G.G.G.G.G.G.G.G.G.G.G.G.G.G.G.G.G.G.G.G.G.G.G.G.G.G.G.G.G.G.",
"G.G.G.G.G.G.G.G.G.G.G.G.G.G.G.G.G.G.G.G.G.G.G.G.G.G.G.G.G.G.G.G.G.G.G.G.G.G.G.G.G.G.G.G.G.G.G.G.G.G.",
"G.G.G.G.G.G.G.G.G.G.G.G.G.G.G.G.G.G.G.G.G.G.G.G.G.G.G.G.G.G.G.G.G.G.G.G.G.G.G.G.G.G.G.G.G.G.G.G.G.G.",
"G.G.G.G.G.G.G.G.G.G.G.G.G.G.G.G.G.G.G.G.G.G.G.G.G.G.G.G.G.G.G.G.G.G.G.G.G.G.G.G.G.G.G.G.G.G.G.G.G.G.",
"G.G.G.G.G.G.G.G.G.G.G.G.G.G.G.G.G.G.G.G.G.G.G.G.G.G.G.G.G.G.G.G.G.G.G.G.G.G.G.G.G.G.G.G.G.G.G.G.G.G.",
"G.G.G.G.G.G.G.G.G.G.G.G.G.G.G.G.G.G.G.G.G.G.G.G.G.G.G.G.G.G.G.G.G.G.G.G.G.G.G.G.G.G.G.G.G.G.G.G.G.G.",
"G.G.G.G.G.G.G.G.G.G.G.G.G.G.G.G.G.G.G.G.G.G.G.G.G.G.G.G.G.G.G.G.G.G.G.G.G.G.G.G.G.G.G.G.G.G.G.G.G.G.",
"G.G.G.G.G.G.G.G.G.G.G.G.G.G.G.G.G.G.G.G.G.G.G.G.G.G.G.G.G.G.G.G.G.G.G.G.G.G.G.G.G.G.G.G.G.G.G.G.G.G.",
"G.G.G.G.G.G.G.G.G.G.G.G.G.G.G.G.G.G.G.G.G.G.G.G.G.G.G.G.G.G.G.G.G.G.G.G.G.G.G.G.G.G.G.G.G.G.G.G.G.G.",
"G.G.G.G.G.G.G.G.G.G.G.G.G.G.G.G.G.G.G.G.G.G.G.G.G.G.G.G.G.G.G.G.G.G.G.G.G.G.G.G.G.G.G.G.G.G.G.G.G.G.",
"G.G.G.G.G.G.G.G.G.G.G.G.G.G.G.G.G.G.G.G.G.G.G.G.G.G.G.G.G.G.G.G.G.G.G.G.G.G.G.G.G.G.G.G.G.G.G.G.G.G.",
"G.G.G.G.G.G.G.G.G.G.G.G.G.G.G.G.G.G.G.G.G.G.G.G.G.G.G.G.G.G.G.G.G.G.G.G.G.G.G.G.G.G.G.G.G.G.G.G.G.G."
};
