/* XPM */
static char *enemy1679953998[] = {
/* columns rows colors chars-per-pixel */
"50 50 202 2 ",
"   c #1E1E1E",
".  c gray9",
"X  c #251E18",
"o  c #2F241D",
"O  c #312414",
"+  c #1D1F21",
"@  c #052D38",
"#  c #1B343B",
"$  c #0E2830",
"%  c #222222",
"&  c #28292A",
"*  c #2A2E32",
"=  c #2C3137",
"-  c #31363C",
";  c #4B341E",
":  c #5A3512",
">  c #573618",
",  c #613914",
"<  c #754816",
"1  c #784813",
"2  c #674015",
"3  c #5E4630",
"4  c #705730",
"5  c #043747",
"6  c #163A49",
"7  c #09404F",
"8  c #064759",
"9  c #385256",
"0  c #034E62",
"q  c #045165",
"w  c #04566B",
"e  c #0B566B",
"r  c #12556B",
"t  c #1E586E",
"y  c #025D74",
"u  c #095F77",
"i  c #105C74",
"p  c #20586E",
"a  c #3F5063",
"s  c #0A647D",
"d  c #03637C",
"f  c #13627C",
"g  c #18647C",
"h  c #24637C",
"j  c #2A637D",
"k  c #32687C",
"l  c #56595F",
"z  c #5A5B5E",
"x  c #43576C",
"c  c #495D73",
"v  c #5C656F",
"b  c #4D647D",
"n  c #476177",
"m  c #58697D",
"M  c #77746E",
"N  c #7E7261",
"B  c #777877",
"V  c #686C72",
"C  c #804E14",
"Z  c #885316",
"A  c #945A15",
"S  c #9D5F17",
"D  c #A96618",
"F  c #B26C1B",
"G  c #BD7217",
"H  c #BC7119",
"J  c #946C3C",
"K  c #9E733E",
"L  c #A66C26",
"P  c #C47617",
"I  c #CE7C18",
"U  c #C6771A",
"Y  c #D17E19",
"T  c #856A4A",
"R  c #847159",
"E  c #A57945",
"W  c #D6811B",
"Q  c #DB841B",
"!  c #E4891C",
"~  c #EB8D1D",
"^  c #EF901E",
"/  c #F7941D",
"(  c #F8941D",
")  c #C18033",
"_  c #DA8521",
"`  c #046982",
"'  c #0B6E89",
"]  c #1E6B87",
"[  c #05728D",
"{  c #09718D",
"}  c #0B7692",
"|  c #067896",
" . c #087B99",
".. c #147593",
"X. c #117D9C",
"o. c #187896",
"O. c #16748D",
"+. c #2E6A87",
"@. c #246B89",
"#. c #206A86",
"$. c #316E8C",
"%. c #316581",
"&. c #24748F",
"*. c #2D758D",
"=. c #2A7F9C",
"-. c #2B7E93",
";. c #377697",
":. c #38798E",
">. c #4F6984",
",. c #496C88",
"<. c #5E6F85",
"1. c #45708E",
"2. c #59738B",
"3. c #427A9B",
"4. c #4A7798",
"5. c #557998",
"6. c #66778A",
"7. c #7B7D81",
"8. c #667D95",
"9. c #457FA3",
"0. c #5B7CA0",
"q. c #0A809E",
"w. c #18809E",
"e. c #23859F",
"r. c #32859B",
"t. c #0684A4",
"y. c #0A83A4",
"u. c #0789AB",
"i. c #0C8BAD",
"p. c #0687A8",
"a. c #1E86A1",
"s. c #088FB1",
"d. c #128FB2",
"f. c #0691B5",
"g. c #0C91B4",
"h. c #0695BA",
"j. c #0A95BA",
"k. c #0799BE",
"l. c #0999BE",
"z. c #1596BA",
"x. c #238AAA",
"c. c #2D82A2",
"v. c #3589A8",
"b. c #248EB2",
"n. c #2695BA",
"m. c #3C93BC",
"M. c #3691A8",
"N. c #5F848E",
"B. c #5B8691",
"V. c #4F849B",
"C. c #78828D",
"Z. c #6A829C",
"A. c #4C83A5",
"S. c #4985AA",
"D. c #5182A5",
"F. c #5C81A6",
"G. c #5C85AB",
"H. c #5886AC",
"J. c #5D8CB4",
"K. c #5892BA",
"L. c #4293B9",
"P. c #6386AC",
"I. c #6789A8",
"U. c #679BA8",
"Y. c #7A93AC",
"T. c #648CB4",
"R. c #688DB4",
"E. c #658FB8",
"W. c #6691BB",
"Q. c #6A92BD",
"!. c #6A90B6",
"~. c #7796B7",
"^. c #7C9AB9",
"/. c #48A0B6",
"(. c #069DC4",
"). c #089CC3",
"_. c #189CC4",
"`. c #2D9BC5",
"'. c #06A4CD",
"]. c #0CA1C8",
"[. c #06A7D1",
"{. c #05A8D1",
"}. c #6C96C2",
"|. c #6D98C5",
" X c #759CC4",
".X c #8097B0",
"XX c #8498AC",
"oX c #88A6B7",
"OX c #9EB7BD",
"+X c #A2ADB1",
"@X c #A6B6BA",
"#X c #BABBBC",
"$X c #C7CACB",
"%X c #D4D6D8",
"&X c #C5CBD1",
"*X c #DFE0E1",
"=X c #E2E3E4",
"-X c #EAEAEB",
";X c #E5E6E8",
":X c #F4F4F5",
">X c #FEFEFE",
",X c #F7F8F7",
/* pixels */
"|.|.|.|.|.|.|.|.|.|.|.|.|.|.|.|.|.|.|.|.E.`.b.@.;.H.|.|.|.}.|.|.|.|.|.|.|.|.|.|.|.|.|.|.|.|.|.|.|.|.",
"|.|.|.|.|.|.|.|.|.|.|.|.|.|.|.|.|.|.|.|._.{.s.y y y } `.`.J.}.|.|.|.|.|.|.|.|.|.|.|.|.|.|.|.|.|.|.|.",
"|.|.|.|.|.|.|.|.|.|.|.|.|.|.|.|.|.|.|.D.s.[.'.` y y h.{.{.{.).o.#.$.H.|.|.|.|.|.|.|.|.|.|.|.|.|.|.|.",
"|.|.|.|.|.|.|.|.|.|.|.|.|.|.|.|.|.|. Xz.{.{.{.'.s.(.{.{.{.{.s.} y y y f 9.|.|.|.|.|.|.|.|.|.|.|.|.|.",
"|.|.|.|.|.|.|.|.|.|.|.|.|.|.|.|.|.|.3.g.'.{.{.{.{.{.{.{.{.{.'.y y y y y y h Q.|.|.|.|.|.|.|.|.|.|.|.",
"|.|.|.|.|.|.|.|.|.|.|.|.|.|.|.|.|.E.].{.{.{.{.{.{.{.{.{.{.{.{.u.y y 5 0 y y g }.|.|.|.|.|.|.|.|.|.|.",
"|.|.|.|.|.|.|.|.|.|.|.|.|.|.|.|.|.m.'.{.{.{.{.{.{.{.{.{.{.h.k.s.y y 5 0 y y y 3.|.|.|.|.|.|.|.|.|.|.",
"|.|.|.|.|.|.|.|.|.|.|.|.|.|.}.^.Y.g { y.{.{.{.{.'.x.U.U.w.'.p.[ y d y y y y y @.|.|.|.|.|.|.|.|.|.|.",
"|.|.|.|.|.|.|.|.|.|.|.|.|.~.%X>X>X=XM.s k.{.'.g.OX,X>X>X,XOX_.t.y y w 5 0 y y ] |.|.|.|.|.|.|.|.|.|.",
"|.|.|.|.|.|.|.|.|.|.|.|.}.%X+ #X>X>X=Xz.{.{.'.OX>X>X>X>X>X>XOXk.[ y y q y y y @.|.|.|.|.|.|.|.|.|.|.",
"|.|.|.|.|.|.|.|.|.|.|.|.R.>X%X,X>X,X-XM.{.{.-.>X$XX :X>X>X>X,Xk | y y y y y y $.|.|.|.|.|.|.|.|.|.|.",
"|.|.|.|.|.|.|.|.|.|.|.|.P.>X>X>X>X-X*XM.{.{.U.>X>X#X>X>X>X>X-XB.y y y y y y y S.|.|.|.|.|.|.|.|.|.|.",
"|.|.|.|.|.|.|.|.|.|.|.|.|.&X>X>X>X%X$Xi.{.{.U.>X>X>X>X>X>X>X=XN.y y y y y y i }.|.|.|.|.|.|.|.|.|.|.",
"|.|.|.|.|.|.|.|.|.|.|.|.}.I.@X,X=X#X&.y.{.{.*.>X>X>X>X>X>X,X=Xk y y y y y y D.|.|.|.|.|.|.|.|.|.|.|.",
"|.|.|.|.|.|.|.|.|.|.|.|.|.!.i.a.e.y.{ u.y.{.g.@X>X>X>X,X,X;X+Xy d y y 0 7 q r +.Q.|.|.|.|.|.|.|.|.|.",
"|.|.|.|.|.|.|.|.|.|.|.|.|.;.'.'.{.} 8 {.@ y.(.X.@X,X:X=X-X+Xg y y y w 0 @ 5 w 8 9.|.|.|.|.|.|.|.|.|.",
"|.|.|.|.|.|.|.|.|.|.|.|.R.'.'.(.'.'.'.{.7 y.l.{.s.r.B.B.r.k.` d y y w 8 y 8 w q 9.|.|.|.|.|.|.|.|.|.",
"|.|.|.|.|.|.|.|.|.|.|.|.|.c.oX$Xx.{.{.q.{.{.{.{.'.'.'.k.].f.y y y y y y w 0 y e J.|.|.|.|.|.|.|.|.|.",
"|.|.|.|.|.|.|.|.|.|.|.|.|.!.>X>X*Xo.r..Xw.s.s.q.q.| ].| h.'.d y y y h @.f f $.J.|.|.|.|.|.|.|.|.|.|.",
"|.|.|.|.|.|.|.|.|.|.|.|.|.Q.>X:X:XXX X|.T.:.g.'.{.'.' q.{. .f *.S.J.|.|.|.|.|.|.|.|.|.|.|.|.|.|.|.|.",
"|.|.|.|.|.|.|.|.|.|.|.|.|.Q.%X-X-XY.|.|.|.|.I.l.k.].{.j.h E.|.|.|.|.|.|.|.|.|.|.|.|.|.|.|.|.|.|.|.|.",
"|.|.|.|.|.|.|.|.|.|.|.|. X}.Y.Y.Y.Q.|.|.|.|.|.A.].h.{.w %.|.|.|.|.|.|.|.|.|.|.|.|.|.|.|.|.|.|.|.|.|.",
"|.|.|.|.|.|.W.|.|.|.|.|.|.|.|.|.|. X X|. X|.|.|.e.'.{ w # 8.|.|.|.|.|.|.|.|.|.|.|.|.|.|.|.|.|.|.|.|.",
"|.|.|.|.}.+.e.|.|.|.|.R.I.8.8.C.C.M M M M V v 2.m 7 f 4 Q N |.|.|.|.|.|.|.|.|.|.|.|.|.|.|.|.|.|.|.|.",
"|.|.|.|.}.u ).T.T.v.b.4 / / / / / / / / / / / / ( ~ Y A Q T }.}.|.|.|.|.|.|.|.|.|.|.|.|.|.|.|.|.|.|.",
"|.|.S.S.0.6 e ..(.{.{.s U / / / / ( / / / / / ~ W H S F Y J |.|.|.|.|.|.|.|.|.|.|.|.|.|.|.|.|.}.|.|.",
"|.R.d.g.` t.[.{.{.{.t.2.7.^ ^ ! ! ~ ! Q Y Y I I I I A I I L |.|.|.|.|.|.|.|.|.|.|.|.|.|.|.|.|.|.|.|.",
"|.k u.j c u. .[ {.].1.|.|.4 D H I I I I Y Y I A C D H W I D Q.|.|.|.|.|.|.|.|.|.|.|.|.|.|.|.|.|.|.|.",
"|.Q.4.T.+. .n r '.h Q. X>.Z G I I I I U Z : D Q / / ( Y I I G.|.|.|.|.|.|.|.|.|.|.|.|.|.|.|.|.|.|.|.",
"|.|.|.|.+.p.2.t (.5.~.&.h.9 < Y U Z 1 A P C / / / ~ ^ I I I I.|.|.|.|.|.|.|.|.|.|.|.|.|.|.|.|.|.|.|.",
"|.|.|.|.%.| 1.6 y.p O.{.{.3.5.; < P Y Y I Z / / / W ! I I I 7.|.|.|.|.|.|.|.|.|.|.|.|.|.|.|.|.|.|.|.",
"|.|.|.|.E.F.E.,.$ y 5 '.k.W.Q.R.K I Y P M E / / / I Q I I I B |.|.|.|.|.|.|.|.|.|.|.|.|.|.|.|.|.|.|.",
"|.|.|.|.|.S.b.X.u.u.p.[.o.|.|.|.}.T F 8.|.U ( ( ( H Y I I Y R |.|.|.|.|.|.|.|.|.|.|.|.|.|.|.|.|.|.|.",
"|.|.|.|.|.x.i.n | ` t (.;.|.|.|.|.}.!.|.|._ / ( / F Y I I I J |.|.|.|.|.|.|.|.|.|.|.|.|.|.|.|.|.|.|.",
"|.|.|.|.|.' ] }.X.%.J. ...Q.|.|.|.|.|.|.0.A C ( Q A I I Y I L |.|.|.|.|.|.|.|.|.|.|.|.|.|.|.|.|.|.|.",
"|.|.|.|.|.0.G.|.&.| 0.;...' 4.|.|.|.|.|.>.% > , X X U A , U U R.|.|.|.|.|.|.|.|.|.|.|.|.|.|.|.|.|.|.",
"|.|.|.|.|.|.|.|.0.&.4.|.}.G.}.|.|.|.|.|.}.= + % % % O   X X < 8.|.|.|.|.|.|.|.|.|.|.|.|.|.|.|.|.|.|.",
"|.|.|.|.|.|.|.|.}.|.|.|.}.|.|.|.|.|.|.|.|.>.% % + % % % % & x Q.|.|.|.|.|.|.|.|.|.|.|.|.|.|.|.|.|.|.",
"|.|.|.|.|.|.|.|.}.}.|.|.|.|.|.|.|.|.|.|.|.|.>.% % % % % & a }.|.|.|.|.|.|.|.|.|.|.|.|.|.|.|.|.|.|.|.",
"|.|.|.|.|.|.|.|.|.|.|.|.|.|.|.|.|.|.|.|.|.|.T.+ . + % % F.|.|.|.|.|.|.|.|.|.|.|.|.|.|.|.|.|.|.|.|.|.",
"|.|.|.|.|.|.|.|.|.|.|.|.|.|.|.|.|.|.|.|.|.|.c % % c & + >. X|.|.|.|.|.|.|.|.|.|.|.|.|.|.|.|.|.|.|.|.",
"|.|.|.|.|.|.|.|.|.|.|.|.|.|.|.|.|.|.|.|.|.}.* % a }.x + * 0.|.}.|.|.|.|.|.|.|.|.|.|.|.|.|.|.|.|.|.|.",
"|.|.|.|.|.|.|.|.|.|.|.|.|.|.|.|.|.|.|.|.|.>.+ % 5.}.}.=.# - R.}.|.|.|.|.|.|.|.|.|.|.|.|.|.|.|.|.|.|.",
"|.|.|.|.|.|.|.|.|.|.|.|.|.|.|.|.|.|.|.|.}.= + * }.}.}.}.* + * >.|.|.|.|.|.|.|.|.|.|.|.|.|.|.|.|.|.|.",
"|.|.|.|.|.|.|.|.|.|.|.|.|.|.|.K.&.S.|.|.0.0.$ c }.|.|.|.c % + o <.}.|.|.|.|.|.|.|.|.|.|.|.|.|.|.|.|.",
"|.|.|.|.|.|.|.|.|.|.|.|.|.|.|.9./.[.K.}.|.v.9.T.}.|.|.|.}.; > : > R.|.|.|.|.|.|.|.|.|.|.|.|.|.|.|.|.",
"|.|.|.|.|.|.|.|.|.|.|.|.|.|.|.T.0.o.).`.L.d.}.}.|.|.l 3 , , : l P.|.|.|.|.|.|.|.|.|.|.|.|.|.|.|.|.|.",
"|.|.|.|.|.|.|.|.|.|.|.|.|.|.|.|.}.}.9.;.X.p.}.|.|.6.: , , ; <.}.|.|.|.|.|.|.|.|.|.|.|.|.|.|.|.|.|.|.",
"|.|.|.|.|.|.|.|.|.|.|.|.|.|.|.|.|.|.|.|.E.;.}.|.|.6.> > l R.|.|.|.|.|.|.|.|.|.|.|.|.|.|.|.|.|.|.|.|.",
"|.|.|.|.|.|.|.|.|.|.|.|.|.|.|.|.|.|.|.|.|.|.|.|.|.}.l I.|.|.|.|.|.|.|.|.|.|.|.|.|.|.|.|.|.|.|.|.|.|."
};
