/* XPM */
static char *door1679953997[] = {
/* columns rows colors chars-per-pixel */
"50 50 124 2 ",
"   c #000000",
".  c #050708",
"X  c #07090A",
"o  c #0A0B0C",
"O  c #0C0F10",
"+  c #0D1011",
"@  c #121415",
"#  c #161A1C",
"$  c #1C1E1F",
"%  c #161D20",
"&  c #1F2427",
"*  c #1E272B",
"=  c #1F292D",
"-  c #232627",
";  c #242A2D",
":  c #212C30",
">  c #253034",
",  c #2E3334",
"<  c #25333A",
"1  c #2A383E",
"2  c #313B3F",
"3  c #2C3B42",
"4  c #2D3E49",
"5  c #313F45",
"6  c #2F414C",
"7  c #314046",
"8  c #34444B",
"9  c #39474C",
"0  c #37484F",
"q  c #344552",
"w  c #374A57",
"e  c #3B4C52",
"r  c #374C5B",
"t  c #384D5E",
"y  c #3E5157",
"u  c #3C5364",
"i  c #444A4D",
"p  c #414E54",
"a  c #415157",
"s  c #495154",
"d  c #44555B",
"f  c #47585E",
"g  c #4A595F",
"h  c #415767",
"j  c #4C5D64",
"k  c #42596B",
"l  c #4C5E68",
"z  c #545C60",
"x  c #445E74",
"c  c #4E6067",
"v  c #516167",
"b  c #5B6264",
"n  c #53646B",
"m  c #5D6468",
"M  c #57686F",
"N  c #5A696F",
"B  c #47627A",
"V  c #48647C",
"C  c #576A74",
"Z  c #5B6C73",
"A  c #596D79",
"S  c #5F7077",
"D  c #5F717A",
"F  c #627176",
"G  c #63747B",
"H  c #67787F",
"J  c #687A7F",
"K  c #717A7C",
"L  c #4C6780",
"P  c #4D6A84",
"I  c #516D86",
"U  c #53728F",
"Y  c #5C778C",
"T  c #547493",
"R  c #5B7B9A",
"E  c #677880",
"W  c #6C7D84",
"Q  c #6D7E89",
"!  c #707F88",
"~  c #5C7FA1",
"^  c #5F809F",
"/  c #6E8087",
"(  c #6F8088",
")  c #748187",
"_  c #788286",
"`  c #72838A",
"'  c #77888F",
"]  c #79898F",
"[  c #668094",
"{  c #6F8492",
"}  c #698499",
"|  c #6F899D",
" . c #708593",
".. c #748894",
"X. c #7B8C93",
"o. c #70899B",
"O. c #7F9097",
"+. c #5F82A5",
"@. c #6184A7",
"#. c #6F8CA3",
"$. c #6386A9",
"%. c #658AAE",
"&. c #6F8EAB",
"*. c #708DA5",
"=. c #6F90AF",
"-. c #668DB4",
";. c #698FB5",
":. c #6E91B4",
">. c #6D94BC",
",. c #6D97C2",
"<. c #6D98C5",
"1. c #828F95",
"2. c #819097",
"3. c #84939A",
"4. c #89969D",
"5. c #8B999F",
"6. c #8D9BA1",
"7. c #919EA4",
"8. c #94A1A6",
"9. c #96A3A9",
"0. c #99A6AC",
"q. c #9DA9AE",
"w. c #9FACB0",
"e. c #A2ADB2",
/* pixels */
"<.<.<.<.<.<.<.<.<.<.<.<.<.<.<.<.<.<.<.<.<.R P <.<.<.<.<.<.<.<.<.<.<.<.<.<.<.<.<.<.<.<.<.<.<.<.<.<.<.",
"<.<.<.<.<.<.<.<.<.<.<.<.<.<.<.<.-.B <.<.>.3 A ~ @.U ;.<.<.<.<.<.<.<.<.<.<.<.<.<.<.<.<.<.<.<.<.<.<.<.",
"<.<.<.<.<.<.<.<.<.<.<.<.<.<.<.<.P e } V 4 a ) G j j D >.<.<.~ +.@.k <.<.<.<.<.<.<.<.<.<.<.<.<.<.<.<.",
"<.<.<.<.<.<.<.<.<.<.<.<.<.<.T 3 8 D ( C A ( ( ( ) ( Q Q k r < n d n ,.<.<.<.<.<.<.<.<.<.<.<.<.<.<.<.",
"<.<.<.<.<.<.<.<.<.<.<.<.<.<.4 Z / / ( ( ( / ( ( ( ( ( ( Q W E ( ( ( ( r q 6 w <.<.<.<.<.<.<.<.<.<.<.",
"<.<.<.<.<.<.<.<.<.<.>.R <.:.4 ( ( ( ( ( ( ( ( ( ( ( ( ( ( ( ( ( ( ( ( Q Q ( ) &.,.<.<.<.<.<.<.<.<.<.",
"<.<.<.<.<.<.<.<.<.<.r e [ u d ) ( ( ( ( ( ( ( ( ( ( ( ( ( ( ( ( ( ( ( ( Q ( ( ( c %.<.<.<.<.<.<.<.<.",
"<.<.<.<.<.<.<.<.<.+.1 Q ) C E ( ( ( ( ( ( ! ( ( ) ( ( ) ( ( ( ( ( ( ( ( ( / ( ( ( =.<.<.<.<.<.<.<.<.",
"<.<.<.<.<.<.<.,.<.t v ) ( ( ( ( / / ( ) W W W W W W Q Q / ) / / / / / ( ( ( ( ( Q #.<.<.<.<.<.<.<.<.",
"<.<.<.<.<.<.x 6 q 5 Q ( / Q ( ( / Q Q H G G G G G G G J J W Q / / ) / ( ( ( ( ( / { <.<.<.<.<.<.<.<.",
"<.<.<.<.<.<.6 E Q ) Q / / ) / / W G G S C Z Z C C A G F G E J E Q / / / ( / ( ( / ) ( I >.<.<.<.<.<.",
"<.<.<.<.T q 5 / ( ( / / / / Q G G Z C n v c c c n n C Z G G G E E W W / ( ( ( ( / Q / W M T <.<.<.<.",
"<.<.<.<.+.n Q / ( ( ( ( Q E G Z C v j j f d f f j c n N Z S G G H E Q W / ( ( ( / ( ( ( ( ( } :.<.<.",
"<.<.<.<.<.l ) ( ( ( ) / H G Z n c j d a e e e y a f j n M Z D G H E W Q Q ( ( ( ( ( ( ( ( ( / C R <.",
"<.<.<.<.<.4 ) ( ( ( Q E G C n j f e e 8 7 > = ; 1 a f c n Z S G H J Q / ( ( ( ( ( ( ( ( ( ( (  .>.<.",
"<.<.<.<.u e Q ( ( ( W G Z n j f e 9 4 : o         X # 9 n N S G H J W ( ( ( ) ) ( ( ( ( ( ( ( #.<.<.",
"<.<.,.t 3 Q ( ( / Q H S n c f y e 4 ;                   @ p F G J W ! ) ) ` ` ` / ( ( ( ( ( ( #.<.<.",
"<.>.r 8 W ( ( ( Q E S Z n j d 0 8 < .                       - Z W ! ) ` ` ` ` ` ( ( ( / ( ( ( { <.<.",
">.6 e Q / ) ) ( W G Z n c d y 0 4 +                           o N ` ` ' ' ` ` ` ( ( ( ( ( ( ( ( o.,.",
"B e / ( ( ( / / W F C n j y e 8 *                               X F X.X.X.X.' ` ) ( ( ( ( ( ( ( ( o.",
"-.Q ( ( ( ( ( Q H G C v j a e 7 O                                 @ 1.1.X.X.X.` ( ( ( ( ( ( ( ( ( ` ",
"<.@.G ( ( ( ( Q H D C n g d y 8 X                                   s 3.2.X.X.' ( ( ( ( ( ( ( ( (  .",
"<.P h ) / ( / Q G G Z n j d y 0 .                                   + 3.4.3.X.X.' ( ( ( ( ( ( ( ( #.",
"+.> S Q / ) / Q J G N n j f a 0                                       _ 5.4.2.X.` ` ( ( ( ( ( ( &.<.",
"B v ( ( ( ( ( Q H G N n l f a %                                       _ 7.5.3.X...( ( ( ( ( / ( :.<.",
"x S ( / ( ( / / W G Z n c f e                                       o 7.7.6.4.1.' ) / ( ( ( ( ( =.<.",
",.>.( / ( ( / ) W G F C v l d O                                     i 0.8.7.5.1.X.) ( ( ( ( ( (  .<.",
"<.+.e / ( ( ( ( W H G Z C v j &                                     1.0.8.7.5.1.X.` ( ( ( ( ( ( ( ,.",
"<.V j ( ( ( ( ( Q J G Z Z n v 5                                   ; e.0.8.6.4.3.X.` ( ( ( ( ( ( ) ,.",
"<.<.Y Q ( ( ( ( / W H G S Z M z                                   J w.9.8.6.4.O.X.) ( ( ( ( ( ( ( >.",
"<.<.3 E ( Q ( ( / W E H G Z Z Z #                               - e.w.8.6.6.3.X...( ( ( ( ( / / | <.",
"<.:.9 ( ( ( ( ( / / Q E G G G G g                             $ 8.w.0.7.6.4.X.X.' ( ( ( ( / ( #.<.<.",
"<.<.:.:.o./ / / ) ( W J J H H G J g .                     X b q.e.q.9.7.6.O.X.` ( ( ( ( ( ( ( <.<.<.",
"<.<.<.<.q W / / ( ( Q Q W E J W W / J i .             o b 9.e.e.0.9.8.6.3.O.' ( ( ( ( ( ( ( o.<.<.<.",
"<.<.<.<.u ( ( ( ( ( ( Q W W Q W / / ] X.F z , @ o - m 8.w.0.0.0.8.6.6.4.O.X.` ( ( ( ( ( ( ( ( <.<.<.",
"<.<.<.<.<.:.| ( ( ( ( ( / / Q / ) ` ] X.1.4.5.7.8.0.9.0.9.9.9.7.6.6.4.O.X.` ( ( ( ( ( ( ( o.=.<.<.<.",
"<.<.<.<.<.<.u E ( ( ( ( ) / / ) ` ` ] X.2.3.4.5.7.7.7.7.7.7.6.6.6.O.O.X.' ( ( ( ( ( ( ( ( >.<.<.<.<.",
"<.<.<.<.<.<.T G ( ( ( ( / / ( ( ` ` ' X.X.2.4.4.5.6.6.5.5.4.4.4.O.X.X.` ( ( ( ( ( ( ( ( ..<.<.<.<.<.",
"<.<.<.<.<.<.<.C ) ( ( ( ( ( ) ` ` ' ' ' X.O.2.3.4.4.4.4.3.3.2.X.X...` ( ( ( ( ( ( ( ) ( =.<.<.<.<.<.",
"<.<.<.<.<.<.<.+.H ( ( ( ( ( ( ( ` ` ` ' ] ] X.O.2.1.1.2.X.X.X.' ` ( ( ( ( ( ( ( ( ( / ( >.<.<.<.<.<.",
"<.<.<.<.<.<.<.,.d ( ( ( ( ) ( ( ( ` ` ` ' ' ' X.X.X.X.X...` ` ) ( ( ( ( ( ( ( ( ( ( { | ,.<.<.<.<.<.",
"<.<.<.<.<.<.<.<.-.| ( / ( / ( ( ( ( ( ( ) ` ' ..' ` ' ` ) ( ( ( ( ( ( ( ( ( ( ( ` >.<.<.<.<.<.<.<.<.",
"<.<.<.<.<.<.<.<.<.,.( / ( ( ( ( ( ( ( ( ( ( ( ( ( ( ( ( ( ( ( ( ( ( ( ( ( ( ) / :.<.<.<.<.<.<.<.<.<.",
"<.<.<.<.<.<.<.<.<.<.o./ ( ( ( ( ( ( ( ( ( ( ( ( ( ( ( ( ( ( ( ( ( ( ( / ( ( / *.<.<.<.<.<.<.<.<.<.<.",
"<.<.<.<.<.<.<.<.<.<.*.( ( ( ( ( ( ( ( ( ( ( ( ) ( ( ( / ( ( ( ( ( ( ( ( ( (  .,.<.<.<.<.<.<.<.<.<.<.",
"<.<.<.<.<.<.<.<.<.<.,.>.:.| | | ( ( ( ( ( ( ( / ( ( ( ( ( / ( ( / ( o.>.>.| >.<.<.<.<.<.<.<.<.<.<.<.",
"<.<.<.<.<.<.<.<.<.<.<.<.<.<.,.<.| / ( ( ( ( / ( ( | o.) / / ( ( ( #.<.<.<.<.<.<.<.<.<.<.<.<.<.<.<.<.",
"<.<.<.<.<.<.<.<.<.<.<.<.<.<.<.<.| ( ( ( ( ( / | >.<.<.:.o.#.{ ` #.<.<.<.<.<.<.<.<.<.<.<.<.<.<.<.<.<.",
"<.<.<.<.<.<.<.<.<.<.<.<.<.<.<.<.,.( ) =.>.>.>.,.<.<.<.<.<.<.,.>.<.<.<.<.<.<.<.<.<.<.<.<.<.<.<.<.<.<.",
"<.<.<.<.<.<.<.<.<.<.<.<.<.<.<.<.<.*.>.<.<.<.<.<.<.<.<.<.<.<.<.<.<.<.<.<.<.<.<.<.<.<.<.<.<.<.<.<.<.<."
};
