/* XPM */
static char *player_l1679953997[] = {
/* columns rows colors chars-per-pixel */
"50 50 214 2 ",
"   c #040505",
".  c #0C0C0B",
"X  c #080807",
"o  c #110E0A",
"O  c #11110F",
"+  c #1F160E",
"@  c #0C0F11",
"#  c #131413",
"$  c #191916",
"%  c #12161B",
"&  c #15191F",
"*  c #1C1D1B",
"=  c #191612",
"-  c #251A0E",
";  c #231D15",
":  c #2A1C12",
">  c #34210F",
",  c #22211D",
"<  c #2B241A",
"1  c #3B2A1C",
"2  c #382715",
"3  c #191D22",
"4  c #151D24",
"5  c #1D242B",
"6  c #1E2227",
"7  c #1E2A35",
"8  c #1E2630",
"9  c #242522",
"0  c #2A2924",
"q  c #2C2D2B",
"w  c #22272B",
"e  c #352E24",
"r  c #2F302A",
"t  c #33312B",
"y  c #242C35",
"u  c #242E3A",
"i  c #2B2F31",
"p  c #2C3135",
"a  c #2A323C",
"s  c #27333D",
"d  c #333434",
"f  c #383936",
"g  c #3C3C3B",
"h  c #353739",
"j  c #412E1F",
"k  c #43301F",
"l  c #593B1C",
"z  c #412F20",
"x  c #453728",
"c  c #5A3F26",
"v  c #483F36",
"b  c #503F35",
"n  c #3F403F",
"m  c #60401E",
"M  c #4E432F",
"N  c #4A453B",
"B  c #504532",
"V  c #5C4132",
"C  c #564A34",
"Z  c #5C4D3A",
"A  c #5A412E",
"S  c #65452C",
"D  c #6B472C",
"F  c #704B2E",
"G  c #744F35",
"H  c #725239",
"J  c #253443",
"K  c #2A3643",
"L  c #2B394A",
"P  c #363D48",
"I  c #2F3F52",
"U  c #3F4140",
"Y  c #3B4448",
"T  c #2F4053",
"R  c #2E445C",
"E  c #33465B",
"W  c #39475C",
"Q  c #3A495E",
"!  c #354556",
"~  c #344B63",
"^  c #394E64",
"/  c #3A4F68",
"(  c #3B5166",
")  c #3B546C",
"_  c #3E5A78",
"`  c #454645",
"'  c #474648",
"]  c #47494A",
"[  c #4A4B4B",
"{  c #4A4745",
"}  c #4F504B",
"|  c #595043",
" . c #5D524D",
".. c #474D55",
"X. c #514E51",
"o. c #4F5151",
"O. c #4B565D",
"+. c #56595A",
"@. c #575A58",
"#. c #675A43",
"$. c #775B44",
"%. c #605E55",
"&. c #68655C",
"*. c #786650",
"=. c #43566B",
"-. c #445566",
";. c #415A74",
":. c #445E7A",
">. c #495D72",
",. c #505B67",
"<. c #56646B",
"1. c #46617D",
"2. c #4B627A",
"3. c #5B6973",
"4. c #686B68",
"5. c #696F71",
"6. c #787877",
"7. c #746F6A",
"8. c #831F18",
"9. c #865A37",
"0. c #8E603D",
"q. c #826F4C",
"w. c #897358",
"e. c #937B55",
"r. c #926A44",
"t. c #A77956",
"y. c #A87D56",
"u. c #B2794C",
"i. c #837869",
"p. c #987F62",
"a. c #9A835D",
"s. c #AF885C",
"d. c #958363",
"f. c #B79769",
"g. c #AC936C",
"h. c #C88B57",
"j. c #DC9358",
"k. c #D99F64",
"l. c #C9AA74",
"z. c #D4B47B",
"x. c #D8B67D",
"c. c #D0A36C",
"v. c #F4A868",
"b. c #EDAF70",
"n. c #E7B678",
"m. c #F4BC7B",
"M. c #F8B877",
"N. c #496685",
"B. c #4D6B8B",
"V. c #496683",
"C. c #506F90",
"Z. c #527293",
"A. c #55779A",
"S. c #57799D",
"D. c #59799C",
"F. c #556F8B",
"G. c #6A7C85",
"H. c #787D81",
"J. c #4F7BA1",
"K. c #597DA1",
"L. c #748791",
"P. c #5D81A7",
"I. c #5E83AA",
"U. c #6086AD",
"Y. c #7C94A4",
"T. c #638BB4",
"R. c #668FB9",
"E. c #6992BD",
"W. c #6790BA",
"Q. c #6C96C2",
"!. c #6D98C5",
"~. c #8C8C8C",
"^. c #87979F",
"/. c #9A938A",
"(. c #A09B96",
"). c #BAAC91",
"_. c #929DA1",
"`. c #8B9DA5",
"'. c #98ABB4",
"]. c #B0AEAA",
"[. c #B9BAB8",
"{. c #A3ACB0",
"}. c #C7B89E",
"|. c #CDB68E",
" X c #EBC68C",
".X c #F2CC8B",
"XX c #F8C887",
"oX c #F7D08E",
"OX c #FBD18E",
"+X c #EECF99",
"@X c #FCD491",
"#X c #F8D699",
"$X c #D2C3A9",
"%X c #FBDCA4",
"&X c #F1DCB6",
"*X c #FAE1B3",
"=X c #AABDC7",
"-X c #ADC3CE",
";X c #B5CBD6",
":X c #B6C8D1",
">X c #B1C6D1",
",X c #C4C4C5",
"<X c #CCCECE",
"1X c #C1C9CD",
"2X c #D9D9D9",
"3X c #CCD8DC",
"4X c #EFE0C4",
"5X c #D5DFE3",
"6X c #DBE0E3",
"7X c #E5E5E4",
"8X c #E9E9E9",
"9X c #E7E8E8",
"0X c #EAEFF1",
"qX c gray94",
/* pixels */
"!.!.!.!.!.!.!.!.!.!.!.!.!.!.!.!.!.!.!.!.!.!.!.!.!.!.E.E.u 1.!.!.!.!.!.!.!.!.!.!.!.!.!.!.!.!.!.!.!.!.",
"!.!.!.!.!.!.!.!.!.!.!.!.!.!.!.!.!.Q.C.E J y y p s K T _ ( # T P.W.!.!.!.!.!.!.!.!.!.!.!.!.!.!.!.!.!.",
"!.!.!.!.!.!.!.!.!.!.!.!.!.!.!.T.E p f ` [ } [ ] [ ] ' n h q r O ( !.!.!.!.!.!.!.!.!.!.!.!.!.!.!.!.!.",
"!.!.!.!.!.!.!.!.!.!.!.!.!.!.N.p g q q ` ' ' ' ' ` ' ` ` ` ` ` ` Q !.!.!.!.!.!.!.!.!.!.!.!.!.!.!.!.!.",
"!.!.!.!.!.!.!.!.!.!.!.!.!.Z.y X 9 P ' ` ` ' ' ' ' ` ` ] ] ' ' ` f y A.!.!.!.!.!.!.!.!.!.!.!.!.!.!.!.",
"!.!.!.!.!.!.!.!.!.!.!.!.!.P.5 d { ] ' ' ' } d [ n o.` ` ] [ ` ' ' f . B.!.!.!.!.!.!.!.!.!.!.!.!.!.!.",
"!.!.!.!.!.!.!.!.!.!.!.!.S.6 p n g ] ] ' ] } 9 } r +.` U n o.] ' ` ` 5 / !.!.!.!.!.!.!.!.!.!.!.!.!.!.",
"!.!.!.!.!.!.!.!.!.!.!.W.5 d f ' d ' [ { [ ] 6 @.= O.` 0 q @.' [ ' ' g V.!.!.!.!.!.!.!.!.!.!.!.!.!.!.",
"!.!.!.!.!.!.!.!.!.!.!.J f * ] ' 6 n } o.` n * n O q ` O 0 o.i o.' ' N 3 E.!.!.!.!.!.!.!.!.!.!.!.!.!.",
"!.!.!.!.!.!.!.!.!.!.I.; 0 p ' n # w } o.` $ , # @ $ t A < n , [ ' f f & V.!.!.!.!.!.!.!.!.!.!.!.!.!.",
"!.!.!.!.!.!.!.!.!.!.T 9 $ f f < . , ` [ n X * S   $ O k.B r $ Y ' q f 6 J !.!.!.!.!.!.!.!.!.!.!.!.!.",
"!.!.!.!.!.!.!.!.!.!.5 9 # r . y.; * n n * O m m.o O 0.OX*., @ N ' , g , @ Q.!.!.!.!.!.!.!.!.!.!.!.!.",
"!.!.!.!.!.!.!.!.!.E.# , # # : XXC $ t 0 X 2 b.@Xf.; n.@Xf.$ O n ` $ f , X T.!.!.!.!.!.!.!.!.!.!.!.!.",
"!.!.!.!.!.!.!.!.!.U.& * # X r.OXx.k 0 * + u.OXx.Z * $ e #.$ o 0 n * d ,   P.!.!.!.!.!.!.!.!.!.!.!.!.",
"!.!.!.!.!.!.!.!.!.Q.1.* #   s.e M 1 * , b.m.l.a.z.oXOX.Xl.$ F , d $ q ,   K.!.!.!.!.!.!.!.!.!.!.!.!.",
"!.!.!.!.!.!.!.!.!.!.:.* $ X e..X@X.X, 9.oX@X@X@Xf.#.C C *.+ c.; r # 9 ,   U.!.!.!.!.!.!.!.!.!.!.!.!.",
"!.!.!.!.!.!.!.!.!.!.B.$ $ # g.C e 1 ; u.@X@Xl.%.N ].1 > <.G.l., q . 9 * X E.!.!.!.!.!.!.!.!.!.!.!.!.",
"!.!.!.!.!.!.!.!.!.!.I.= O , [ %./.> Y.h.@X@X|.L.7.8Xe 2 N -X X2 0 . 0 # 4 !.!.!.!.!.!.!.!.!.!.!.!.!.",
"!.!.!.!.!.!.!.!.!.!.!.3 O 0 } @.N 2 ^..X@X@X#X_.l - O m #.7XoXe 9 O 9 @ E !.!.!.!.!.!.!.!.!.!.!.!.!.",
"!.!.!.!.!.!.!.!.!.!.!.T O , 0 i.- l [.@X@X@X@X&XZ m m m (.&X@Xk ; # 9   Z.Q.!.!.!.!.!.!.!.!.!.!.!.!.",
"!.!.!.!.!.!.!.!.!.!.!.I.O $ $ }.c M $XOX@X@X@X@X).f > M ).oXOXj # = $ % Q.!.!.!.!.!.!.!.!.!.!.!.!.!.",
"!.!.!.!.!.!.!.!.!.!.!.!.T O < +Xa.a. X@X@X@X@X@X@X.X.X@XOXOXOXk @ ; 5 :.!.!.!.!.!.!.!.!.!.!.!.!.!.!.",
"!.!.!.!.!.!.!.!.!.!.!.!.Z.. , *XoX@X@X@X@X@X@X@X@X@X@X@X@X@Xm.j   $ K.Q.!.!.!.!.!.!.!.!.!.!.!.!.!.!.",
"!.!.!.!.!.!.!.!.!.!.!.!.!.4 X ).#X@X@X@X@X@X@X@X@X@X@X@X@XOXv.1 O ;.!.!.!.!.!.!.!.!.!.!.!.!.!.!.!.!.",
"!.!.!.!.!.!.!.!.!.!.!.!.!.B.. = }.%X@X@X@X@X@XOX@X@XOX@X@Xm.H ( ^ Q.Q.!.!.!.!.!.!.!.!.!.!.!.!.!.!.!.",
"!.!.!.!.!.!.!.!.!.!.!.!.!.!.) L y | |.#X@XoXz.l..X@X.Xg.C ( E.W.Q.!.!.!.!.!.!.!.!.!.!.!.!.!.!.!.!.!.",
"!.!.!.!.!.!.!.!.!.!.!.!.!.!.!.E.!.A.R p M M Z B b e # 4.'.^.s D.Q.!.!.!.!.!.!.!.!.!.!.!.!.!.!.!.!.!.",
"!.!.!.!.!.!.!.!.!.!.!.!.!.!.!.!.!.!.!.!.W.I.U.5.7.[ ~.<X3X<.y 5 B.!.!.!.!.!.!.!.!.!.!.!.!.!.!.!.!.!.",
"!.!.!.!.!.!.!.!.!.!.!.!.!.!.!.!.!.!.!.!.!.!.S.6.8X7X2X2X<X-.Q L w B.!.!.!.!.!.!.!.!.!.!.!.!.!.!.!.!.",
"!.!.!.!.!.!.O.] B.Q.!.!.!.!.!.!.!.!.!.!.!.!.B.~.8X,X,X8X<X`.L Q u 4 !.!.!.!.!.!.!.!.!.!.!.!.!.!.!.!.",
"!.!.!.!.!.U.d.s.G P P.!.!.!.!.!.!.!.!.!.!.!.:.5.1X<X8X9X,X-XL.w q 9.K.!.!.!.!.!.!.!.!.!.!.!.!.!.!.!.",
"!.!.!.!.!.Q.-.$.f.t.A Y T.!.!.!.!.!.!.!.!.!.K <X1X6X8X8X[.>X;XO.N XX .!.!.!.!.!.!.!.!.!.!.!.!.!.!.!.",
"!.!.!.!.!.!.!.R.2.| g.t.b W Q.Q.Q.!.!.!.!.!.' 8X8X8X8X8X,X=X;X'.W  XF T.!.!.!.!.!.!.!.!.!.!.!.!.!.!.",
"!.!.!.!.!.!.!.!.!.Q.B.+.e.t.b =.Q.Q.!.!.!.K.{.qXqXqXqX8X8X=X;X=XV.p.F K.!.!.!.!.!.!.!.!.!.!.!.!.!.!.",
"!.!.!.!.!.!.!.!.!.!.!.!.K.,.H 8.b V.!.!.!.D.7XqXqXqX8X8X0X=X3X=X^.i.S K.!.!.!.!.!.!.!.!.!.!.!.!.!.!.",
"!.!.!.!.!.!.!.!.!.!.!.!.Q.!.T.=.| $.g S.Q.>.~.2X8X8X8X8X6X=XG.U %.#Xh.K.!.!.!.!.!.!.!.!.!.!.!.!.!.!.",
"!.!.!.!.!.!.!.!.!.!.!.!.Q.!.!.!.Q.B.{ c q H J y K f d i 8 8 w a #.@Xv.>.!.!.!.!.!.!.!.!.!.!.!.!.!.!.",
"!.!.!.!.!.!.!.!.!.!.!.!.!.!.!.!.!.!.Q.C.d x / I K y y P W W y y H h.G ;.!.!.!.!.!.!.!.!.!.!.!.!.!.!.",
"!.!.!.!.!.!.!.!.!.!.!.!.!.!.!.!.!.!.!.!.F.& ^ W y & % 8 W W J y # y N.Q.!.!.!.!.!.!.!.!.!.!.!.!.!.!.",
"!.!.!.!.!.!.!.!.!.!.!.!.!.!.!.!.!.!.!.!./ w P K K i V.R.P W J a u y Q.Q.!.!.!.!.!.!.!.!.!.!.!.!.!.!.",
"!.!.!.!.!.!.!.!.!.!.!.!.!.!.!.!.!.!.!.!.K.# y a a 3 K.!.L I a w % C.!.!.!.!.!.!.!.!.!.!.!.!.!.!.!.!.",
"!.!.!.!.!.!.!.!.!.!.!.!.!.!.!.!.!.!.!.!.W.y.D # # . Q.!.=.w z 9.{ Q.!.!.!.!.!.!.!.!.!.!.!.!.!.!.!.!.",
"!.!.!.!.!.!.!.!.!.!.!.!.!.!.!.!.!.!.!.!.!.w.b. .T.Q.!.!.!.!.&.M.j...!.!.!.!.!.!.!.!.!.!.!.!.!.!.!.!.",
"!.!.!.!.!.!.!.!.!.!.!.!.!.!.!.!.!.!.!.!.!.5.M.S !.!.!.!.!.!.T.4.XXu.A.!.!.!.!.!.!.!.!.!.!.!.!.!.!.!.",
"!.!.!.!.!.!.!.!.!.!.!.!.!.!.!.!.!.!.!.Q.!.4.M.S !.!.!.!.!.!.!.K.g.v.X.Q.!.!.!.!.!.!.!.!.!.!.!.!.!.!.",
"!.!.!.!.!.!.!.!.!.!.!.!.!.!.!.!.!.!.!.F...b j.P !.!.!.Q.!.!.!.K.] 7.< K.!.!.!.!.!.!.!.!.!.!.!.!.!.!.",
"!.!.!.!.!.!.!.!.!.!.!.!.!.!.Q.Q.T.T./ ../ J._ R V.Z.C.Z.C.Z.C.H.0X5XH.J T.Q.Q.!.!.!.!.!.!.!.!.!.!.!.",
"!.!.!.!.!.!.!.!.!.!.!.!.!.K.Z.N.N.1.P 2.I _ ~ J ~ N.N.N.N.N./ -.=.W J 8 / B.S.T.Q.!.!.!.!.!.!.!.!.!.",
"!.!.!.!.!.!.!.!.!.!.!.!.!.T.K.C.N.N.I ~ R ~ I I :.N.N.N.N.N.;.R ~ ~ ;.:.N.C.K.W.!.!.!.!.!.!.!.!.!.!.",
"!.!.!.!.!.!.!.!.!.!.!.!.!.!.Q.Q.Q.T.T.K.K.K.K.K.A.K.A.A.A.K.K.K.K.K.T.Q.Q.Q.!.!.!.!.!.!.!.!.!.!.!.!."
};
