/* XPM */
static char *player_r1679953998[] = {
/* columns rows colors chars-per-pixel */
"50 50 202 2 ",
"   c #050504",
".  c #090907",
"X  c #0C0C0B",
"o  c #0F100E",
"O  c #12110E",
"+  c #1C150F",
"@  c #0E1116",
"#  c #141513",
"$  c #1A1A16",
"%  c #111519",
"&  c #161A1E",
"*  c #1C1C1A",
"=  c #181714",
"-  c #2A1C0E",
";  c #251D15",
":  c #1F201C",
">  c #32200F",
",  c #22221D",
"<  c #2D231B",
"1  c #2E2016",
"2  c #342313",
"3  c #3A2A19",
"4  c #181D23",
"5  c #1C232B",
"6  c #1B2126",
"7  c #1E2935",
"8  c #242422",
"9  c #292925",
"0  c #2C2C2A",
"q  c #22282C",
"w  c #372E22",
"e  c #2F302D",
"r  c #33322F",
"t  c #393327",
"y  c #252C35",
"u  c #222E3A",
"i  c #2B2F35",
"p  c #2E3134",
"a  c #2B333C",
"s  c #24313E",
"d  c #343534",
"f  c #373939",
"g  c #3B3C3B",
"h  c #353637",
"j  c #432D16",
"k  c #593B1D",
"l  c #493929",
"z  c #5B3C28",
"x  c #4B3D36",
"c  c #3F403F",
"v  c #62411F",
"b  c #4D422E",
"n  c #4D4331",
"m  c #574834",
"M  c #5A503C",
"N  c #664529",
"B  c #684C38",
"V  c #64543B",
"C  c #79563A",
"Z  c #744D30",
"A  c #253443",
"S  c #2C3745",
"D  c #2C3947",
"F  c #2C3B4C",
"G  c #263847",
"H  c #303A49",
"J  c #3A3C41",
"K  c #2D3F55",
"L  c #333E50",
"P  c #38424B",
"I  c #2F4153",
"U  c #324353",
"Y  c #32465A",
"T  c #35495E",
"R  c #3A495D",
"E  c #394559",
"W  c #374C62",
"Q  c #3A4E63",
"!  c #3C536C",
"~  c #37546E",
"^  c #3E5670",
"/  c #454545",
"(  c #474847",
")  c #474848",
"_  c #4A4B4B",
"`  c #5D544B",
"'  c #434D57",
"]  c #4E5152",
"[  c #49535C",
"{  c #525454",
"}  c #52595D",
"|  c #5A5E5E",
" . c #575755",
".. c #665749",
"X. c #765C45",
"o. c #675D53",
"O. c #796445",
"+. c #726A57",
"@. c #4A5867",
"#. c #405A73",
"$. c #445E7A",
"%. c #465B71",
"&. c #48617B",
"*. c #5B636E",
"=. c #636F77",
"-. c #76726D",
";. c #88241B",
":. c #8C5E3B",
">. c #915F39",
",. c #98643D",
"<. c #866846",
"1. c #986D45",
"2. c #987049",
"3. c #8A7654",
"4. c #997956",
"5. c #A17B51",
"6. c #AC7348",
"7. c #857968",
"8. c #C27E4B",
"9. c #BA8858",
"0. c #978772",
"q. c #948668",
"w. c #AC8764",
"e. c #B78A64",
"r. c #AE9366",
"t. c #B39B73",
"y. c #C98E59",
"u. c #E7975B",
"i. c #C79767",
"p. c #D69B62",
"a. c #C6A873",
"s. c #D0AF79",
"d. c #DBB97E",
"f. c #D3B37B",
"g. c #CEA46D",
"h. c #F8BF7D",
"j. c #F5B776",
"k. c #F2AB6A",
"l. c #3D5980",
"z. c #496685",
"x. c #4D6887",
"c. c #4E6C8C",
"v. c #466786",
"b. c #52708F",
"n. c #506F90",
"m. c #527293",
"M. c #55779B",
"N. c #57799D",
"B. c #587B9F",
"V. c #4D769A",
"C. c #677986",
"Z. c #5A7EA3",
"A. c #5D81A7",
"S. c #5E83AA",
"D. c #6086AD",
"F. c #638AB2",
"G. c #668FB9",
"H. c #6790BA",
"J. c #6992BD",
"K. c #718996",
"L. c #6C96C2",
"P. c #6D98C5",
"I. c #8A8784",
"U. c #859398",
"Y. c #9A958E",
"T. c #AAA18F",
"R. c #B6A381",
"E. c #8A9BA3",
"W. c #95A5AC",
"Q. c #9EB2BB",
"!. c #8DA0A8",
"~. c #B6B6B6",
"^. c #ABABA9",
"/. c #DEBC81",
"(. c #D1BC97",
"). c #ECBF81",
"_. c #EBC384",
"`. c #ECC78A",
"'. c #F6C887",
"]. c #FAD18E",
"[. c #FCD491",
"{. c #F8D59F",
"}. c #F0CA95",
"|. c #CEC6AD",
" X c #F6D9A6",
".X c #E5CDA2",
"XX c #FBE4BA",
"oX c #97B4C4",
"OX c #A0B5C0",
"+X c #B8C2C6",
"@X c #B5CCD7",
"#X c #BACCD5",
"$X c #C7C8C6",
"%X c #D3D6D7",
"&X c #D9DADA",
"*X c #EBE4D5",
"=X c #D2DCE0",
"-X c #DDE3E5",
";X c #E6E6E6",
":X c #E9E9E9",
">X c #E7E9E9",
",X c gray94",
/* pixels */
"P.P.P.P.P.P.P.P.P.P.P.P.P.P.P.P.P.P.P.P.L.K Q P.P.P.P.P.P.P.P.P.P.P.P.P.P.P.P.P.P.P.P.P.P.P.P.P.P.P.",
"P.P.P.P.P.P.P.P.P.P.P.P.P.P.P.P.P.P.Z.A.4 # x.W S S a i y u S ! A.P.P.P.P.P.P.P.P.P.P.P.P.P.P.P.P.P.",
"P.P.P.P.P.P.P.P.P.P.P.P.P.P.P.P.P.P.4 & g i h c ) _ _ _ _ ] / P h a $.P.P.P.P.P.P.P.P.P.P.P.P.P.P.P.",
"P.P.P.P.P.P.P.P.P.P.P.P.P.P.P.P.P.L.i / / / ( / ( / / ( ( / / g 9 h f a S.P.P.P.P.P.P.P.P.P.P.P.P.P.",
"P.P.P.P.P.P.P.P.P.P.P.P.P.P.P.P.! q / / / / ) ( / / / ( ( ( ( / / h # % A H.P.P.P.P.P.P.P.P.P.P.P.P.",
"P.P.P.P.P.P.P.P.P.P.P.P.P.P.P.D # / ) / / ] / ( _ / _ ( / ( ( / ( _ / 0 F J.P.P.P.P.P.P.P.P.P.P.P.P.",
"P.P.P.P.P.P.P.P.P.P.P.P.P.P.G.F 0 / / / ) | 9 ( _ g _ P / / ( / ( ] c r h u J.P.P.P.P.P.P.P.P.P.P.P.",
"P.P.P.P.P.P.P.P.P.P.P.P.P.P.P.D / / ) { / | X J _ J h ) f x ] ( ] ] 0 ( 6 g I P.P.P.P.P.P.P.P.P.P.P.",
"P.P.P.P.P.P.P.P.P.P.P.P.P.P.m.0 P n ( P / _ = 9 f 0 o / * g { / { f 6 / ( , 8 c.P.P.P.P.P.P.P.P.P.P.",
"P.P.P.P.P.P.P.P.P.P.P.P.P.P.u 0 n c ( e c e N + g O . 8 # 0 { / { $ $ / P : d 5 P.P.P.P.P.P.P.P.P.P.",
"P.P.P.P.P.P.P.P.P.P.P.P.P.J.. 0 P h ( 9 e : r.:.* X 2 2 $ # _ / ( o + 9 n 9 9 $ N.P.P.P.P.P.P.P.P.P.",
"P.P.P.P.P.P.P.P.P.P.P.P.P.m.  0 g d _ 6 : o /.h.3 . V p.; X d d t . O.l @ 9 6 * Q P.P.P.P.P.P.P.P.P.",
"P.P.P.P.P.P.P.P.P.P.P.P.P.#.. 0 0 h c , : O ].].9.l s.].y.O = 0 9 O t.p.. : # o a P.P.P.P.P.P.P.P.P.",
"P.P.P.P.P.P.P.P.P.P.P.P.P.W . 0 : h h , # : M , $ 9 3.'.j.z ; , : 2._.].2 # $ o u P.P.P.P.P.P.P.P.P.",
"P.P.P.P.P.P.P.P.P.P.P.P.P.T . 9 $ r e l 3 b d.[.]._.a.3.)._.9.$ = b t M C . : o G.P.P.P.P.P.P.P.P.P.",
"P.P.P.P.P.P.P.P.P.P.P.P.P.! . 8 $ 9 0 N O.b V m M O.d.].].].j.3 V [.[.d.m . : o G.P.P.P.P.P.P.P.P.P.",
"P.P.P.P.P.P.P.P.P.P.P.P.L.z.. 8 $ , 9 C q.K.e 2 o.^.r +.'.[.h.v w 3 w O.m $ : o P.P.P.P.P.P.P.P.P.P.",
"P.P.P.P.P.P.P.P.P.P.P.P.P.A.  , , = , 1.|.oX2 - -.*Xt OX`.[.'.0.} 2 ^.K.< , $ 6 P.P.P.P.P.P.P.P.P.P.",
"P.P.P.P.P.P.P.P.P.P.P.P.P.P.% $ , o : 4. X%Xk j = j 3 $X[.[.'.|. .- o.U.: < # Y P.P.P.P.P.P.P.P.P.P.",
"P.P.P.P.P.P.P.P.P.P.P.P.P.P.A O < . , 5.[.*X..v k v I. X[.[.[. X+.3 > T.O , . M.P.P.P.P.P.P.P.P.P.P.",
"P.P.P.P.P.P.P.P.P.P.P.P.P.P.N.  8 X : 2.[.`.0.3 2  ..X[.[.[.[.[.Y.v ` a.. : y P.P.P.P.P.P.P.P.P.P.P.",
"P.P.P.P.P.P.P.P.P.P.P.P.P.P.P.Y $ o = 2.[.[.[.[.'.[.[.[.[.[.[.[.s.3.r.(.  o M.P.P.P.P.P.P.P.P.P.P.P.",
"P.P.P.P.P.P.P.P.P.P.P.P.P.P.P.P.T $ X ,.].[.[.[.[.[.[.[.[.[.[.[.].].[.(.  % L.P.P.P.P.P.P.P.P.P.P.P.",
"P.P.P.P.P.P.P.P.P.P.P.P.P.P.P.P.J.u O >.h.[.[.[.[.[.[.[.[.[.[.[.].].*X..  ! P.P.P.P.P.P.P.P.P.P.P.P.",
"P.P.P.P.P.P.P.P.P.P.P.P.P.P.P.P.P.H.5 @.1.].[.[.[.[.[.[.[.[.[.[.}.XX7.. @ G.P.P.P.P.P.P.P.P.P.P.P.P.",
"P.P.P.P.P.P.P.P.P.P.P.P.P.P.P.P.P.P.J.J.A.P X.f.].[./.a./.[.[. XR.r W & Z.L.P.P.P.P.P.P.P.P.P.P.P.P.",
"P.P.P.P.P.P.P.P.P.P.P.P.P.P.P.P.P.P.J.&.P Q.U._ O l n m M b t a ! Z.L.L.P.P.P.P.P.P.P.P.P.P.P.P.P.P.",
"P.P.P.P.P.P.P.P.P.P.P.P.P.P.P.P.P.P.I 7 y W.;X~.-.) ^.T S.F.P.P.P.P.L.P.P.P.P.P.P.P.P.P.P.P.P.P.P.P.",
"P.P.P.P.P.P.P.P.P.P.P.P.P.P.P.P.P.I p H ^ =.:X$X;X;X>Xd P.P.P.P.P.P.P.P.P.P.P.P.P.P.P.P.P.P.P.P.P.P.",
"P.P.P.P.P.P.P.P.P.P.P.P.P.P.P.P.A.& D R P W.:X;X~.&X>Xf P.P.P.P.P.P.P.P.P.P.P.P.P.P.Q ` x.P.P.P.P.P.",
"P.P.P.P.P.P.P.P.P.P.P.P.P.P.P.P.@.<.5 y Q.W.;X>X;X$X+Xe G.P.P.P.P.P.P.P.P.P.P.P.l.x :.i.{ P.P.P.P.P.",
"P.P.P.P.P.P.P.P.P.P.P.P.P.P.P.D.2._.# E.@XW.>X>X;X=X+XI.n.P.P.P.P.P.P.P.P.P.n.J :.e.4.` n.P.P.P.P.P.",
"P.P.P.P.P.P.P.P.P.P.P.P.P.P.P.! i.4.E @X@XW.:X:X:X:X:X%X' P.P.P.P.P.P.P.Z.J X.i.4.' m.L.P.P.P.P.P.P.",
"P.P.P.P.P.P.P.P.P.P.P.P.P.P.P.I p.] C.@X@X~.>X:X,X,X,X,X*.P.P.P.P.P.F.L B e...@.Z.P.P.P.P.P.P.P.P.P.",
"P.P.P.P.P.P.P.P.P.P.P.P.P.P.P.W y.} OX@X@X%X>X>X,X,X,X:X^.P.P.P.L.W z ;...&.Z.P.P.P.P.P.P.P.P.P.P.P.",
"P.P.P.P.P.P.P.P.P.P.P.P.P.P.P.*.).).S } E.@X-X>X:X:X:X$X=.z.P.%.x :._ c.P.P.P.P.P.P.P.P.P.P.P.P.P.P.",
"P.P.P.P.P.P.P.P.P.P.P.P.P.P.P...).[.q i 5 5 q p h f A A % X.x x [ M.P.P.P.P.P.P.P.P.P.P.P.P.P.P.P.P.",
"P.P.P.P.P.P.P.P.P.P.P.P.P.P.P.h :.u.1 A A R W H y y S ' S B ' Z.P.P.P.P.P.P.P.P.P.P.P.P.P.P.P.P.P.P.",
"P.P.P.P.P.P.P.P.P.P.P.P.P.P.P.G.%.% 4 A H L L 4 % 6 H E E q Z.P.P.P.P.P.P.P.P.P.P.P.P.P.P.P.P.P.P.P.",
"P.P.P.P.P.P.P.P.P.P.P.P.P.P.P.P.Z.% a A L ' W P.u A a H H @ F.P.P.P.P.P.P.P.P.P.P.P.P.P.P.P.P.P.P.P.",
"P.P.P.P.P.P.P.P.P.P.P.P.P.P.P.P.P.Y & y H E ^ P.W y a a 5 5 L.P.P.P.P.P.P.P.P.P.P.P.P.P.P.P.P.P.P.P.",
"P.P.P.P.P.P.P.P.P.P.P.P.P.P.P.P.P.S.B N < u N.P.z.X @ - :.7.L.P.P.P.P.P.P.P.P.P.P.P.P.P.P.P.P.P.P.P.",
"P.P.P.P.P.P.P.P.P.P.P.P.P.P.P.P.H.B k.g.C.P.P.P.L.G.D.6.).@.P.P.P.P.P.P.P.P.P.P.P.P.P.P.P.P.P.P.P.P.",
"P.P.P.P.P.P.P.P.P.P.P.P.P.P.P.P.' u.}.@.L.P.P.P.P.L.c.8. Xz.P.P.P.P.P.P.P.P.P.P.P.P.P.P.P.P.P.P.P.P.",
"P.P.P.P.P.P.P.P.P.P.P.P.P.P.P.J.,.j.| J.P.P.P.P.P.P.n.8.}.$.P.P.P.P.P.P.P.P.P.P.P.P.P.P.P.P.P.P.P.P.",
"P.P.P.P.P.P.P.P.P.P.P.P.P.P.P.$.l -.U J.P.P.P.P.P.P.F.Z p.a [ S.P.P.P.P.P.P.P.P.P.P.P.P.P.P.P.P.P.P.",
"P.P.P.P.P.P.P.P.P.P.L.P.L.L.n.q +X-X>X@.n.m.m.m.m.m.F l.v.V.A } m.Z.L.L.P.P.P.P.P.P.P.P.P.P.P.P.P.P.",
"P.P.P.P.P.P.P.P.P.P.L.S.n.c.7 A G R %.A z.z.x.v.z.v.7 K ~ ~ L =.A x.x.x.Z.Z.P.P.P.P.P.P.P.P.P.P.P.P.",
"P.P.P.P.P.P.P.P.P.P.L.F.M.c.z.^ ^ W W Y v.v.z.z.z.z.Q K Y Y W Y T x.c.n.Z.L.L.L.P.P.P.P.P.P.P.P.P.P.",
"P.P.P.P.P.P.P.P.P.P.P.P.L.L.G.G.F.D.Z.Z.Z.M.M.M.M.M.M.Z.Z.Z.Z.S.Z.L.L.P.P.P.P.L.P.P.P.P.P.P.P.P.P.P."
};
