/* XPM */
static char *wall1679953998[] = {
/* columns rows colors chars-per-pixel */
"50 50 22 1 ",
"  c #272925",
". c #2A2B26",
"X c #2D2E29",
"o c #2F312C",
"O c #32332E",
"+ c #343631",
"@ c #383732",
"# c #373934",
"$ c #3A3B36",
"% c #373C39",
"& c #3C3E39",
"* c #3E413C",
"= c #41433D",
"- c #3F4340",
"; c #444641",
": c #464943",
"> c #494B45",
", c #474B48",
"< c #4B4E49",
"1 c #4D504B",
"2 c #50524C",
"3 c #545650",
/* pixels */
"1:=#;=:;;:*<::=<*=&*1:<;>;;$*$==;:=&@<2=$=:==>=$=O",
":;>&==:=:*$>*>::=@&<:1:=*=*$=@;>==*$=$#;&&@==::=;@",
";==@*=>;>:@:=2:2+%;*:;:=1;=**#>1::;>@=##=$*=<;;;=#",
">*&O##*=$:*>>:<:##;;<>>;<==**o**;>=>+>*&=OO=>=;:*#",
"O##%;:*%*=:*+O*&;&*$X+****$>:-$**X+#+%*O;*%>**X#$$",
"O=**&<**:==*+@*-$$;=*=<:>=$;:#*;=O%;-;*#<=>=;;O===",
"O&;&;*%%*$*@#+#<==;;;:*:*==$$@#+#+-;:,:*;=:><>#>=;",
"#$**;=@#@=&@@+&*==>:*;1==;$$*=%%:%&--*2*;<1>>;+;=:",
"@;%%&>;#:;=:*+*:*====1==1>====$==*&$*;<$>>2>=*O,1=",
"#:=&&;;%=&&$:**::><===>=:;$>=====@;%=2;#>====%+;**",
"+##&=*$+$*$$@+&$$$=@X@@oOOXXOoO#@O@O#.#.=X@O@@O&$@",
";;#OO&%#$&*&;&**@1>=*=:=$;;:=#*=$$@OO;;O$$=O&*&&@o",
"%;*X&%;;*=&;%:;:**>=::=$>*=:>$**@$=O@>=$=&=@;&;;$#",
";;<O>;&&=<++-:,,O*==:=:=:>>:=*$&*=@=O1==&==*;&;;*#",
";><#=>;=*:*;<:,;@*=*$===>:;>=$=$=&=$@<=@$===:-;;-$",
"*<>+>;&====*:-,3X*=<;=:=<<:<:O==:>=&@*=*====;&%1>$",
"->$@**;=*@O>=1==O*===**$>>1>*#**===#.*==$==:,*-;2=",
"o+o+O:+$****$#$=@$$*$#;*;*o;*#-;*$@#O*$OO$O#&&%$@$",
"o*==*=$;>*=>*#==>=>>=**>*=#,<*;>=$=>=>=O##&;&&&&==",
"++=;*$$#>>==$#<==>=>*;*<=:o;>>>-=$===1=O==&;;=#&==",
"o$$#***$;==*=@*=>:==$**==*o;:>>*=$=====O;*&:;;+>==",
"X*++o**%*>;*$$===1;>=::$** +;>1*1@==1=*X;=-;&>X&=*",
"o**>*>;*;==;$$<=>:;<*;;1=;o$=:;>=O=$===$%&%;,;#%*=",
" +#+o$$#$+oX@.$**=$O$**+$$o$OO@$$.$@$$oo%*&#%%++#@",
",1>$;>;=;>*=$=*$o=;==;=**=*:++O*===:**==*;*o***::$",
">*=$>:=*=>*@@$@@+>===;>*=>=***$;=*==O====*:O**===*",
"***o=:;*@=@:==$$O*=1====:<=>:=$>:=>=*:==******==1*",
"***$<:::====$===O*;>1;==::=>1:;;=1>=@*>=**$#*$*==*",
"=**O:=*:>@*==***+;*;**=$=1:=>==>:==>**1::>***=*==*",
"=:;**>=*=*=$==*=#*;=;=;@>;;=*@*=*#**$>*><=****=>=+",
"O**O$**oO@$*OOO**@@##$$#+$.#O*$**$$#*$****$$@+***O",
"+*>=:=**=1=>>$=>===$O=:;=$o**::>=@O*$::#>->***====",
"**=***+*;*:==**:=<=>*1>1>=O=;1>;:o$*=%;#;>$==*$>==",
"O==**>*****:=*>>=:=<*=1===$O****>+**;*%O**==****2=",
"*1=<:***>*1:*#11=*=**===<;*@$-*>*o=*:<;$====*$*===",
"@1:=>:**>:::>#>=*=:**=11:=*@-*#*=+*:=:=$=>=**%*;==",
"o$*$+OX$+$$+oo*$**o$$*=*==O.o#oo*++**+$o%$O .XoO$*",
";:,$:-**==%:::*-#$*$O#*#$#*:;****;;;+*<=:;;:;*<;=@",
">::*:>*:=**:1;::$***=***=*:=:**-;>>;%::=;<#%;%;>=$",
"$;1*,>=:=:**,:=:**=>*>**=$**;**,;>;1%;1:=:**;:>1**",
"**=$=<==::**=;1<**::**:#*>*====32;:>+;*:::%;%;:;=@",
"**$o11>=:=*=:>**O*::*>*#<=<<=*==>:=<$;=;>>**=1>:=O",
"**=****=<:$==@@*O**1===O*===<*=====:=;;=*;*#;=<:@X",
"oOXXXXXoO*OX.X@XOO##*+**O++OOOOXOOOXOO+oOOo.X#@@*O",
"O$******=====O*$*****====1*****$**;>==:+=*=*===>=>",
"****=*$*====*@==***:*=<><>**==**$$%*=*;&*;->====::",
"$==*==O======****<****=1<1O==<==+#*;=>;%<>&=;;;:=>",
"@=====@======@==:<:***1===*=*===$%==&=;*;:1>=:*:=:",
"$====***==**=$=*==*=@==<**@*=====##*=$=*=:<=>=#$==",
"o@*$$Oo##O X. O*@*$OO****@@OO*$@OOO***$O@**$#$o@@*"
};
